/* XPM */
static char *_793e6f5e0734d41be7551870f0ca395eb1SgNlduIKXNfRz[] = {
/* columns rows colors chars-per-pixel */
"64 64 6 1 ",
"  c black",
"< c #0eedd7",
"+ c #16b3de",
"Z c #f0f5f1",
"m c #0a0a0a",
"P c #f2221b",
/* pixels */
"                                                                ",
"                                                                ",
"                                                                ",
"                                                                ",
"                                                                ",
"                                                                ",
"                                                                ",
"                                                                ",
"                                                                ",
"                                                                ",
"                                                                ",
"                                                                ",
"                                                                ",
"                                                                ",
"                                                                ",
"                                                                ",
"                                                                ",
"                                                                ",
"                                                                ",
"                                                                ",
"                                                                ",
"                                                                ",
"                                                                ",
"                                                                ",
"                                                                ",
"                                                                ",
"                                                                ",
"                                                                ",
"                                                                ",
"                                                                ",
"                              <<<                               ",
"                            <<<<<<<                             ",
"                           <<++++++<<                           ",
"                          <<++P++P++<<                          ",
"                          <<++++++++<<                          ",
"                          <<+++Z++++<<                          ",
"                          <<++++++++<<       <<                 ",
"                          <<++ZZZ++<<   <<   <<   <<            ",
"                           <<++++++<<    <<  <<  <<             ",
"                             <<<<<<<      << << <<              ",
"                              <<<<<        <<<<                 ",
"                                <<          <<                  ",
"                                <<          <<                  ",
"                                <<          <<                  ",
"                                <<          <<                  ",
"                      <<<<<<<<<<<<<<<<<<<<<<<                   ",
"                      <<<<<<<<<<<<<<<<<<<<<<<                   ",
"                        mmm     <<                              ",
"                           mmm  <<                              ",
"                             mmmmm                              ",
"                               <mmmm                            ",
"                              <<  <<mm                          ",
"                              <<    <<mm                        ",
"                             <<       <<PP                      ",
"                            <<          <<                      ",
"                           <<             <<                    ",
"                         <<                <<                   ",
"                        <<                  <<                  ",
"                       <<                    <<                 ",
"                      <<                      <<                ",
"                     <<                        <<               ",
"                    <<                          <<              ",
"                   <<                            <<             ",
"                <<<<                             <<<<<          ",
"                <<<<                             <<<<<          "
};
