/* XPM */
static char *result[] = {
/* columns rows colors chars-per-pixel */
"64 63 7 1 ",
"n c #09e6e2",
"x c #85e6e4",
"v c #9bebe9",
"+ c #b0f5f3",
"u c #c7fcfb",
"t c #d7fcfc",
"o c #defafa",
/* pixels */
"oooooooooooooooooooooooooooooooooooooooooooooooooooooooooooooooo",
"oooooooooooooooooooooooooooooooooooooooooooooooooooooooooooooooo",
"ooooooooooooooooooooooooooooonnnnnnnnooooooooooooooooooooooooooo",
"ooooooooooooooooooooooooonnnnnnnnnnnnnnnnnoooooooooooooooooooooo",
"oooooooooooooooooooonnnnnnxxxxxxxxxxxxxxnnnnnnoooooooooooooooooo",
"ooooooooooooooooonnnnxxxxxxxvvvvvvvvvxxxxxxxnnnnoooooooooooooooo",
"oooooooooooooonnnnxxxxxxvvvvvvvvvvvvvvvvvxxxxxxnnnoooooooooooooo",
"oooooooooooonnnnxxxxxvvvvvv++++++++++vvvvvvvxxxxxnnnoooooooooooo",
"ooooooooooonnnnxxxxxvvvvv+++++uuuuuu++++vvvvvxxxxxnnnnoooooooooo",
"ooooooooonnnnnxxxxxvvv+++++uuuutttuuuu++++vvvvxxxxxnnnnnoooooooo",
"ooooooonnnnnxxxxxvvvv++++uuuutttttttuuuu++++vvvvxxxxxnnnnnoooooo",
"ooooonnnnnxxxxxvvvvv++++uuuutttoootttuuuuu++++vvvvxxxxxnnnnooooo",
"ooonnnnnxxxxxvvvvvv++++uuuutttoooootttuuuuu++++vvvvvxxxxxnnnnooo",
"oooooooooooooooooooooooooooooooooooooooooooooooooooooooooooooooo",
"oooooooooooooooooooooooooooooooooooooooooooooooooooooooooooooooo",
"oooooooooooooooooooooooooooooooooooooooooooooooooooooooooooooooo",
"oooooooooooooooooooooooooooooooooooooooooooooooooooooooooooooooo",
"oooooooooooooooooooooooooooooooooooooooooooooooooooooooooooooooo",
"ooooooooooooooooooooooooooooonnnnnnnnooooooooooooooooooooooooooo",
"ooooooooooooooooooooooooonnnnnnnnnnnnnnnnnoooooooooooooooooooooo",
"oooooooooooooooooooonnnnnnxxxxxxxxxxxxxxnnnnnnoooooooooooooooooo",
"ooooooooooooooooonnnnxxxxxxxvvvvvvvvvxxxxxxxnnnnoooooooooooooooo",
"oooooooooooooonnnnxxxxxxvvvvvvvvvvvvvvvvvxxxxxxnnnoooooooooooooo",
"oooooooooooonnnnxxxxxvvvvvv++++++++++vvvvvvvxxxxxnnnoooooooooooo",
"ooooooooooonnnnxxxxxvvvvv+++++uuuuuu++++vvvvvxxxxxnnnnoooooooooo",
"ooooooooonnnnnxxxxxvvv+++++uuuutttuuuu++++vvvvxxxxxnnnnnoooooooo",
"ooooooonnnnnxxxxxvvvv++++uuuutttttttuuuu++++vvvvxxxxxnnnnnoooooo",
"ooooonnnnnxxxxxvvvvv++++uuuutttoootttuuuuu++++vvvvxxxxxnnnnooooo",
"ooonnnnnxxxxxvvvvvv++++uuuutttoooootttuuuuu++++vvvvvxxxxxnnnnooo",
"oooooooooooooooooooooooooooooooooooooooooooooooooooooooooooooooo",
"oooooooooooooooooooooooooooooooooooooooooooooooooooooooooooooooo",
"oooooooooooooooooooooooooooooooooooooooooooooooooooooooooooooooo",
"oooooooooooooooooooooooooooooooooooooooooooooooooooooooooooooooo",
"oooooooooooooooooooooooooooooooooooooooooooooooooooooooooooooooo",
"ooooooooooooooooooooooooooooonnnnnnnnooooooooooooooooooooooooooo",
"ooooooooooooooooooooooooonnnnnnnnnnnnnnnnnoooooooooooooooooooooo",
"oooooooooooooooooooonnnnnnxxxxxxxxxxxxxxnnnnnnoooooooooooooooooo",
"ooooooooooooooooonnnnxxxxxxxvvvvvvvvvxxxxxxxnnnnoooooooooooooooo",
"oooooooooooooonnnnxxxxxxvvvvvvvvvvvvvvvvvxxxxxxnnnoooooooooooooo",
"oooooooooooonnnnxxxxxvvvvvv++++++++++vvvvvvvxxxxxnnnoooooooooooo",
"ooooooooooonnnnxxxxxvvvvv+++++uuuuuu++++vvvvvxxxxxnnnnoooooooooo",
"ooooooooonnnnnxxxxxvvv+++++uuuutttuuuu++++vvvvxxxxxnnnnnoooooooo",
"ooooooonnnnnxxxxxvvvv++++uuuutttttttuuuu++++vvvvxxxxxnnnnnoooooo",
"ooooonnnnnxxxxxvvvvv++++uuuutttoootttuuuuu++++vvvvxxxxxnnnnooooo",
"ooonnnnnxxxxxvvvvvv++++uuuutttoooootttuuuuu++++vvvvvxxxxxnnnnooo",
"oooooooooooooooooooooooooooooooooooooooooooooooooooooooooooooooo",
"oooooooooooooooooooooooooooooooooooooooooooooooooooooooooooooooo",
"oooooooooooooooooooooooooooooooooooooooooooooooooooooooooooooooo",
"oooooooooooooooooooooooooooooooooooooooooooooooooooooooooooooooo",
"oooooooooooooooooooooooooooooooooooooooooooooooooooooooooooooooo",
"ooooooooooooooooooooooooooooonnnnnnnnooooooooooooooooooooooooooo",
"ooooooooooooooooooooooooonnnnnnnnnnnnnnnnnoooooooooooooooooooooo",
"oooooooooooooooooooonnnnnnxxxxxxxxxxxxxxnnnnnnoooooooooooooooooo",
"ooooooooooooooooonnnnxxxxxxxvvvvvvvvvxxxxxxxnnnnoooooooooooooooo",
"oooooooooooooonnnnxxxxxxvvvvvvvvvvvvvvvvvxxxxxxnnnoooooooooooooo",
"oooooooooooonnnnxxxxxvvvvvv++++++++++vvvvvvvxxxxxnnnoooooooooooo",
"ooooooooooonnnnxxxxxvvvvv+++++uuuuuu++++vvvvvxxxxxnnnnoooooooooo",
"ooooooooonnnnnxxxxxvvv+++++uuuutttuuuu++++vvvvxxxxxnnnnnoooooooo",
"ooooooonnnnnxxxxxvvvv++++uuuutttttttuuuu++++vvvvxxxxxnnnnnoooooo",
"ooooonnnnnxxxxxvvvvv++++uuuutttoootttuuuuu++++vvvvxxxxxnnnnooooo",
"ooonnnnnxxxxxvvvvvv++++uuuutttoooootttuuuuu++++vvvvvxxxxxnnnnooo",
"oooooooooooooooooooooooooooooooooooooooooooooooooooooooooooooooo",
"oooooooooooooooooooooooooooooooooooooooooooooooooooooooooooooooo",
"oooooooooooooooooooooooooooooooooooooooooooooooooooooooooooooooo"
};